<?xml version="1.0" standalone="no"?>
<!DOCTYPE svg PUBLIC "-//W3C//DTD SVG 20010904//EN"
 "http://www.w3.org/TR/2001/REC-SVG-20010904/DTD/svg10.dtd">
<svg version="1.0" xmlns="http://www.w3.org/2000/svg"
 width="256.000000pt" height="256.000000pt" viewBox="0 0 256.000000 256.000000"
 preserveAspectRatio="xMidYMid meet">
<metadata>
Created by potrace 1.11, written by Peter Selinger 2001-2013
</metadata>
<g transform="translate(0.000000,256.000000) scale(0.100000,-0.100000)"
fill="#000000" stroke="none">
<path d="M628 2365 c-2 -2 -19 -5 -38 -8 -96 -13 -183 -68 -302 -189 -186
-192 -177 -144 -174 -908 2 -681 -1 -652 79 -760 67 -90 208 -222 269 -253
103 -52 132 -55 483 -55 178 0 343 4 367 9 60 13 154 61 208 106 63 52 180
184 212 240 47 81 50 130 46 778 l-3 600 -28 59 c-29 62 -57 97 -168 211 -80
83 -156 131 -243 156 -55 15 -109 17 -384 17 -176 0 -322 -1 -324 -3z m615
-461 c18 -15 44 -43 58 -63 l25 -36 -2 -525 c-1 -289 -2 -529 -3 -533 -2 -14
-111 -117 -124 -117 -7 -1 -124 -1 -260 -1 -278 -1 -268 -3 -332 75 l-36 45 0
524 c-1 334 3 532 9 544 6 10 31 38 56 63 42 43 48 45 113 50 37 3 157 4 266
3 l198 -2 32 -27z"/>
<path d="M1932 2359 c-16 -6 -18 -29 -17 -260 l0 -254 260 0 260 0 1 258 c1
179 -3 257 -10 258 -58 4 -481 2 -494 -2z"/>
</g>
</svg>
